<svg width="100" height="100" viewBox="0 0 24 24" xmlns="http://www.w3.org/2000/svg">
  <defs>
    <linearGradient id="githubGradient" x1="0" y1="0" x2="0" y2="1">
      <stop offset="0%" stop-color="#00667a"/>
      <stop offset="100%" stop-color="#002d49"/>
    </linearGradient>
  </defs>
  <rect width="24" height="24" fill="url(#githubGradient)" rx="5"/>
  <path fill="#FFFFFF" d="M12 2C6.48 2 2 6.48 2 12c0 4.42 2.87 8.17 6.84 9.5.5.1.66-.22.66-.49 0-.24-.01-.87-.01-1.71-2.78.6-3.37-1.34-3.37-1.34-.45-1.17-1.1-1.48-1.1-1.48-.9-.62.07-.61.07-.61 1 .07 1.53 1.03 1.53 1.03.88 1.5 2.3 1.07 2.86.82.09-.64.34-1.07.62-1.31-2.22-.25-4.56-1.11-4.56-4.95 0-1.09.39-1.99 1.03-2.69-.1-.25-.45-1.27.1-2.64 0 0 .84-.27 2.75 1.02A9.59 9.59 0 0 1 12 6.8a9.6 9.6 0 0 1 2.5.34c1.91-1.3 2.75-1.02 2.75-1.02.55 1.37.2 2.39.1 2.64.64.7 1.03 1.6 1.03 2.69 0 3.85-2.34 4.7-4.57 4.95.35.31.66.92.66 1.86 0 1.34-.01 2.41-.01 2.74 0 .27.16.6.67.49C19.14 20.17 22 16.42 22 12c0-5.52-4.48-10-10-10z"/>
</svg>
