<svg xmlns="http://www.w3.org/2000/svg" viewBox="0 0 50 50" width="50" height="50">
  <defs>
    <linearGradient id="linkedinGradient" x1="0" y1="0" x2="0" y2="1">
      <stop offset="0%" stop-color="#00667a"/>
      <stop offset="100%" stop-color="#002d49"/>
    </linearGradient>
  </defs>
  <rect width="50" height="50" fill="url(#linkedinGradient)" rx="8"/>
  <path fill="#FFFFFF" d="M17,20v19h-6V20H17z M11,14.47c0-1.4,1.2-2.47,3-2.47s2.93,1.07,3,2.47c0,1.4-1.12,2.53-3,2.53 C12.2,17,11,15.87,11,14.47z M39,39h-6c0,0,0-9.26,0-10c0-2-1-4-3.5-4.04h-0.08C27,24.96,26,27.02,26,29c0,0.91,0,10,0,10h-6V20h6 v2.56c0,0,1.93-2.56,5.81-2.56c3.97,0,7.19,2.73,7.19,8.26V39z"/>
</svg>
